<svg width="69" height="67" viewBox="0 0 69 67" fill="none" xmlns="http://www.w3.org/2000/svg">
<ellipse cx="34.5" cy="33.5" rx="34.5" ry="33.5" fill="black"/>
<path d="M34.8203 6.48047C49.9336 6.48047 62.1611 18.3733 62.1611 33.0146C62.161 47.6559 49.9335 59.5488 34.8203 59.5488C19.7073 59.5486 7.48061 47.6557 7.48047 33.0146C7.48047 18.3735 19.7072 6.48072 34.8203 6.48047Z" fill="white" stroke="black" stroke-width="0.96"/>
<path d="M36.7678 15.2822C35.7915 14.3059 34.2085 14.3059 33.2322 15.2822L17.3223 31.1921C16.346 32.1684 16.346 33.7514 17.3223 34.7277C18.2986 35.704 19.8816 35.704 20.8579 34.7277L35 20.5855L49.1421 34.7277C50.1184 35.704 51.7014 35.704 52.6777 34.7277C53.654 33.7514 53.654 32.1684 52.6777 31.1921L36.7678 15.2822ZM35 49.95L37.5 49.95L37.5 17.05L35 17.05L32.5 17.05L32.5 49.95L35 49.95Z" fill="black"/>
</svg>
