<svg width="69" height="67" viewBox="0 0 69 67" fill="none" xmlns="http://www.w3.org/2000/svg">
<ellipse cx="34.5" cy="33.5" rx="34.5" ry="33.5" fill="black"/>
<path d="M34.8203 6.48047C49.9336 6.48047 62.1611 18.3733 62.1611 33.0146C62.161 47.6559 49.9335 59.5488 34.8203 59.5488C19.7073 59.5486 7.48061 47.6557 7.48047 33.0146C7.48047 18.3735 19.7072 6.48072 34.8203 6.48047Z" fill="white" stroke="black" stroke-width="0.96"/>
<mask id="path-3-outside-1_14_44" maskUnits="userSpaceOnUse" x="25" y="20" width="19" height="30" fill="black">
<rect fill="white" x="25" y="20" width="19" height="30"/>
<path d="M31.8011 40.304V39.9716C31.8097 38.429 31.9545 37.2017 32.2358 36.2898C32.5256 35.3778 32.9347 34.6449 33.4631 34.0909C33.9915 33.5284 34.6349 33.0128 35.3935 32.544C35.9134 32.2202 36.3778 31.8665 36.7869 31.483C37.2045 31.0909 37.5327 30.6562 37.7713 30.179C38.0099 29.6932 38.1293 29.152 38.1293 28.5554C38.1293 27.8821 37.9716 27.2983 37.6562 26.804C37.3409 26.3097 36.9148 25.9261 36.3778 25.6534C35.8494 25.3807 35.2571 25.2443 34.6009 25.2443C33.9957 25.2443 33.4205 25.3764 32.875 25.6406C32.3381 25.8963 31.8906 26.2884 31.5327 26.8168C31.1832 27.3366 30.9872 27.9972 30.9446 28.7983H26.3935C26.4361 27.179 26.8281 25.8239 27.5696 24.733C28.3196 23.642 29.3082 22.8239 30.5355 22.2784C31.7713 21.733 33.1349 21.4602 34.6264 21.4602C36.2543 21.4602 37.6861 21.7457 38.9219 22.3168C40.1662 22.8878 41.1335 23.7017 41.8239 24.7585C42.5227 25.8068 42.8722 27.0511 42.8722 28.4915C42.8722 29.4631 42.7145 30.3324 42.3991 31.0994C42.0923 31.8665 41.6534 32.5483 41.0824 33.1449C40.5114 33.7415 39.8338 34.2741 39.0497 34.7429C38.3594 35.169 37.7926 35.6122 37.3494 36.0724C36.9148 36.5327 36.5909 37.0739 36.3778 37.696C36.1733 38.3097 36.0668 39.0682 36.0582 39.9716V40.304H31.8011ZM34.0256 48.2812C33.2585 48.2812 32.598 48.0085 32.044 47.4631C31.4901 46.9176 31.2131 46.2528 31.2131 45.4688C31.2131 44.7017 31.4901 44.0455 32.044 43.5C32.598 42.9545 33.2585 42.6818 34.0256 42.6818C34.7841 42.6818 35.4403 42.9545 35.9943 43.5C36.5568 44.0455 36.8381 44.7017 36.8381 45.4688C36.8381 45.9886 36.706 46.4616 36.4418 46.8878C36.1861 47.3139 35.8452 47.6548 35.419 47.9105C35.0014 48.1577 34.5369 48.2812 34.0256 48.2812Z"/>
</mask>
<path d="M31.8011 40.304V39.9716C31.8097 38.429 31.9545 37.2017 32.2358 36.2898C32.5256 35.3778 32.9347 34.6449 33.4631 34.0909C33.9915 33.5284 34.6349 33.0128 35.3935 32.544C35.9134 32.2202 36.3778 31.8665 36.7869 31.483C37.2045 31.0909 37.5327 30.6562 37.7713 30.179C38.0099 29.6932 38.1293 29.152 38.1293 28.5554C38.1293 27.8821 37.9716 27.2983 37.6562 26.804C37.3409 26.3097 36.9148 25.9261 36.3778 25.6534C35.8494 25.3807 35.2571 25.2443 34.6009 25.2443C33.9957 25.2443 33.4205 25.3764 32.875 25.6406C32.3381 25.8963 31.8906 26.2884 31.5327 26.8168C31.1832 27.3366 30.9872 27.9972 30.9446 28.7983H26.3935C26.4361 27.179 26.8281 25.8239 27.5696 24.733C28.3196 23.642 29.3082 22.8239 30.5355 22.2784C31.7713 21.733 33.1349 21.4602 34.6264 21.4602C36.2543 21.4602 37.6861 21.7457 38.9219 22.3168C40.1662 22.8878 41.1335 23.7017 41.8239 24.7585C42.5227 25.8068 42.8722 27.0511 42.8722 28.4915C42.8722 29.4631 42.7145 30.3324 42.3991 31.0994C42.0923 31.8665 41.6534 32.5483 41.0824 33.1449C40.5114 33.7415 39.8338 34.2741 39.0497 34.7429C38.3594 35.169 37.7926 35.6122 37.3494 36.0724C36.9148 36.5327 36.5909 37.0739 36.3778 37.696C36.1733 38.3097 36.0668 39.0682 36.0582 39.9716V40.304H31.8011ZM34.0256 48.2812C33.2585 48.2812 32.598 48.0085 32.044 47.4631C31.4901 46.9176 31.2131 46.2528 31.2131 45.4688C31.2131 44.7017 31.4901 44.0455 32.044 43.5C32.598 42.9545 33.2585 42.6818 34.0256 42.6818C34.7841 42.6818 35.4403 42.9545 35.9943 43.5C36.5568 44.0455 36.8381 44.7017 36.8381 45.4688C36.8381 45.9886 36.706 46.4616 36.4418 46.8878C36.1861 47.3139 35.8452 47.6548 35.419 47.9105C35.0014 48.1577 34.5369 48.2812 34.0256 48.2812Z" fill="#1E1E1E"/>
<path d="M31.8011 40.304H30.8011V41.304H31.8011V40.304ZM31.8011 39.9716L30.8011 39.9661V39.9716H31.8011ZM32.2358 36.2898L31.2827 35.9869L31.2802 35.9951L32.2358 36.2898ZM33.4631 34.0909L34.1867 34.7811L34.1919 34.7756L33.4631 34.0909ZM35.3935 32.544L35.9192 33.3947L35.9222 33.3928L35.3935 32.544ZM36.7869 31.483L37.4709 32.2125L37.4714 32.212L36.7869 31.483ZM37.7713 30.179L38.6658 30.6262L38.6689 30.6199L37.7713 30.179ZM37.6562 26.804L38.4993 26.2662L37.6562 26.804ZM36.3778 25.6534L35.9192 26.542L35.925 26.545L36.3778 25.6534ZM32.875 25.6406L33.3049 26.5435L33.3109 26.5406L32.875 25.6406ZM31.5327 26.8168L30.7047 26.2559L30.7027 26.2589L31.5327 26.8168ZM30.9446 28.7983V29.7983H31.8928L31.9432 28.8514L30.9446 28.7983ZM26.3935 28.7983L25.3938 28.772L25.3668 29.7983H26.3935V28.7983ZM27.5696 24.733L26.7455 24.1664L26.7426 24.1708L27.5696 24.733ZM30.5355 22.2784L30.1317 21.3636L30.1294 21.3646L30.5355 22.2784ZM38.9219 22.3168L38.5024 23.2245L38.5048 23.2256L38.9219 22.3168ZM41.8239 24.7585L40.9866 25.3054L40.9918 25.3132L41.8239 24.7585ZM42.3991 31.0994L41.4742 30.7192L41.4707 30.728L42.3991 31.0994ZM41.0824 33.1449L40.36 32.4534L41.0824 33.1449ZM39.0497 34.7429L38.5366 33.8846L38.5305 33.8882L38.5244 33.892L39.0497 34.7429ZM37.3494 36.0724L36.6291 35.3788L36.6224 35.3858L37.3494 36.0724ZM36.3778 37.696L35.4318 37.372L35.4292 37.3798L36.3778 37.696ZM36.0582 39.9716L35.0582 39.9622V39.9716H36.0582ZM36.0582 40.304V41.304H37.0582V40.304H36.0582ZM32.044 47.4631L32.7456 46.7505L32.044 47.4631ZM32.044 43.5L32.7456 44.2126H32.7456L32.044 43.5ZM35.9943 43.5L35.2927 44.2126L35.2982 44.2179L35.9943 43.5ZM36.4418 46.8878L35.5919 46.3608L35.588 46.367L35.5843 46.3733L36.4418 46.8878ZM35.419 47.9105L35.9284 48.7711L35.9335 48.768L35.419 47.9105ZM31.8011 40.304H32.8011V39.9716H31.8011H30.8011V40.304H31.8011ZM31.8011 39.9716L32.8011 39.9771C32.8094 38.4801 32.9512 37.3632 33.1914 36.5845L32.2358 36.2898L31.2802 35.9951C30.9579 37.0403 30.8099 38.3779 30.8012 39.9661L31.8011 39.9716ZM32.2358 36.2898L33.1888 36.5926C33.4438 35.7903 33.7861 35.2011 34.1867 34.7811L33.4631 34.0909L32.7395 33.4007C32.0832 34.0887 31.6073 34.9654 31.2828 35.9869L32.2358 36.2898ZM33.4631 34.0909L34.1919 34.7756C34.6517 34.2861 35.224 33.8243 35.9192 33.3947L35.3935 32.544L34.8678 31.6934C34.0458 32.2013 33.3312 32.7707 32.7342 33.4062L33.4631 34.0909ZM35.3935 32.544L35.9222 33.3928C36.4926 33.0375 37.0099 32.6446 37.4709 32.2125L36.7869 31.483L36.103 30.7534C35.7458 31.0883 35.3341 31.4028 34.8647 31.6953L35.3935 32.544ZM36.7869 31.483L37.4714 32.212C37.9687 31.7451 38.3705 31.2166 38.6657 30.6262L37.7713 30.179L36.8769 29.7318C36.6948 30.0959 36.4404 30.4367 36.1025 30.7539L36.7869 31.483ZM37.7713 30.179L38.6689 30.6199C38.9816 29.9833 39.1293 29.289 39.1293 28.5554H38.1293H37.1293C37.1293 29.015 37.0383 29.403 36.8738 29.7381L37.7713 30.179ZM38.1293 28.5554H39.1293C39.1293 27.7205 38.9317 26.9439 38.4993 26.2662L37.6562 26.804L36.8132 27.3418C37.0115 27.6527 37.1293 28.0437 37.1293 28.5554H38.1293ZM37.6562 26.804L38.4993 26.2662C38.0852 25.6169 37.5225 25.1132 36.8307 24.7618L36.3778 25.6534L35.925 26.545C36.3071 26.7391 36.5967 27.0024 36.8132 27.3418L37.6562 26.804ZM36.3778 25.6534L36.8365 24.7648C36.152 24.4115 35.3999 24.2443 34.6009 24.2443V25.2443V26.2443C35.1143 26.2443 35.5468 26.3498 35.9192 26.542L36.3778 25.6534ZM34.6009 25.2443V24.2443C33.8445 24.2443 33.1202 24.4107 32.4391 24.7406L32.875 25.6406L33.3109 26.5406C33.7207 26.3421 34.147 26.2443 34.6009 26.2443V25.2443ZM32.875 25.6406L32.4451 24.7378C31.7356 25.0756 31.155 25.5913 30.7048 26.2559L31.5327 26.8168L32.3606 27.3776C32.6263 26.9854 32.9405 26.717 33.3049 26.5435L32.875 25.6406ZM31.5327 26.8168L30.7027 26.2589C30.2279 26.9653 29.9956 27.8134 29.946 28.7452L30.9446 28.7983L31.9432 28.8514C31.9789 28.1809 32.1385 27.708 32.3626 27.3746L31.5327 26.8168ZM30.9446 28.7983V27.7983H26.3935V28.7983V29.7983H30.9446V28.7983ZM26.3935 28.7983L27.3931 28.8246C27.4318 27.3529 27.7851 26.1949 28.3966 25.2951L27.5696 24.733L26.7426 24.1708C25.8712 25.4528 25.4403 27.005 25.3938 28.772L26.3935 28.7983ZM27.5696 24.733L28.3936 25.2995C29.0375 24.363 29.8805 23.6638 30.9417 23.1922L30.5355 22.2784L30.1294 21.3646C28.736 21.9839 27.6017 22.9211 26.7456 24.1664L27.5696 24.733ZM30.5355 22.2784L30.9393 23.1933C32.0352 22.7096 33.2594 22.4602 34.6264 22.4602V21.4602V20.4602C33.0105 20.4602 31.5074 20.7564 30.1317 21.3636L30.5355 22.2784ZM34.6264 21.4602V22.4602C36.1374 22.4602 37.4213 22.725 38.5024 23.2245L38.9219 22.3168L39.3413 21.409C37.9508 20.7665 36.3712 20.4602 34.6264 20.4602V21.4602ZM38.9219 22.3168L38.5048 23.2256C39.5928 23.7249 40.4081 24.4198 40.9867 25.3054L41.8239 24.7585L42.6611 24.2116C41.8589 22.9836 40.7396 22.0506 39.339 21.4079L38.9219 22.3168ZM41.8239 24.7585L40.9918 25.3132C41.5661 26.1746 41.8722 27.2194 41.8722 28.4915H42.8722H43.8722C43.8722 26.8828 43.4794 25.439 42.6559 24.2038L41.8239 24.7585ZM42.8722 28.4915H41.8722C41.8722 29.3547 41.7323 30.0916 41.4743 30.7192L42.3991 31.0994L43.324 31.4797C43.6967 30.5731 43.8722 29.5715 43.8722 28.4915H42.8722ZM42.3991 31.0994L41.4707 30.728C41.2114 31.3762 40.8424 31.9494 40.36 32.4534L41.0824 33.1449L41.8048 33.8363C42.4644 33.1472 42.9733 32.3567 43.3276 31.4708L42.3991 31.0994ZM41.0824 33.1449L40.36 32.4534C39.8571 32.9788 39.2518 33.457 38.5366 33.8846L39.0497 34.7429L39.5628 35.6012C40.4158 35.0913 41.1656 34.5041 41.8048 33.8363L41.0824 33.1449ZM39.0497 34.7429L38.5244 33.892C37.7809 34.3509 37.1436 34.8445 36.6291 35.3788L37.3494 36.0724L38.0698 36.7661C38.4416 36.3799 38.9378 35.9871 39.575 35.5938L39.0497 34.7429ZM37.3494 36.0724L36.6224 35.3858C36.0859 35.9539 35.6893 36.6201 35.4318 37.372L36.3778 37.696L37.3239 38.02C37.4925 37.5276 37.7437 37.1114 38.0764 36.7591L37.3494 36.0724ZM36.3778 37.696L35.4292 37.3798C35.1814 38.123 35.0674 38.9925 35.0583 39.9622L36.0582 39.9716L37.0582 39.981C37.0661 39.1439 37.1652 38.4963 37.3265 38.0123L36.3778 37.696ZM36.0582 39.9716H35.0582V40.304H36.0582H37.0582V39.9716H36.0582ZM36.0582 40.304V39.304H31.8011V40.304V41.304H36.0582V40.304ZM34.0256 48.2812V47.2812C33.525 47.2812 33.1154 47.1146 32.7456 46.7505L32.044 47.4631L31.3424 48.1756C32.0806 48.9025 32.992 49.2812 34.0256 49.2812V48.2812ZM32.044 47.4631L32.7456 46.7505C32.3844 46.3948 32.2131 45.9875 32.2131 45.4688H31.2131H30.2131C30.2131 46.5182 30.5957 47.4404 31.3424 48.1756L32.044 47.4631ZM31.2131 45.4688H32.2131C32.2131 44.9737 32.3796 44.5729 32.7456 44.2126L32.044 43.5L31.3424 42.7874C30.6005 43.518 30.2131 44.4297 30.2131 45.4688H31.2131ZM32.044 43.5L32.7456 44.2126C33.1154 43.8485 33.525 43.6818 34.0256 43.6818V42.6818V41.6818C32.992 41.6818 32.0806 42.0606 31.3424 42.7874L32.044 43.5ZM34.0256 42.6818V43.6818C34.5143 43.6818 34.9206 43.8462 35.2927 44.2126L35.9943 43.5L36.6959 42.7874C35.9601 42.0629 35.0538 41.6818 34.0256 41.6818V42.6818ZM35.9943 43.5L35.2982 44.2179C35.6711 44.5796 35.8381 44.9787 35.8381 45.4688H36.8381H37.8381C37.8381 44.4247 37.4425 43.5113 36.6905 42.7821L35.9943 43.5ZM36.8381 45.4688H35.8381C35.8381 45.8097 35.7542 46.099 35.5919 46.3608L36.4418 46.8878L37.2917 47.4147C37.6577 46.8243 37.8381 46.1676 37.8381 45.4688H36.8381ZM36.4418 46.8878L35.5843 46.3733C35.413 46.6587 35.1899 46.8818 34.9045 47.053L35.419 47.9105L35.9335 48.768C36.5004 48.4279 36.9591 47.9692 37.2993 47.4023L36.4418 46.8878ZM35.419 47.9105L34.9097 47.0499C34.6547 47.2008 34.3678 47.2812 34.0256 47.2812V48.2812V49.2812C34.7061 49.2812 35.3481 49.1145 35.9284 48.7711L35.419 47.9105Z" fill="black" mask="url(#path-3-outside-1_14_44)"/>
</svg>
