<svg width="400" height="177" viewBox="0 0 400 177" fill="none" xmlns="http://www.w3.org/2000/svg">
<g filter="url(#filter0_d_0_1)">
<path d="M0.0150402 60L24.1955 1.22799H30.9123L54.9249 60H44.5138L25.7068 12.3947H29.2331L10.2582 60H0.0150402ZM11.9374 48.6654V40.2694H43.0865V48.6654H11.9374ZM54.8062 166V107.228H64.4616V166H54.8062Z" fill="#CF2222"/>
<path d="M62.6774 60V1.22799H72.3328V60H62.6774ZM69.3103 60V51.1842H100.04V60H69.3103ZM131.029 60.8396C126.775 60.8396 122.829 60.084 119.19 58.5727C115.608 57.0054 112.474 54.8505 109.787 52.1078C107.1 49.3091 105.029 46.0906 103.574 42.4524C102.119 38.7581 101.391 34.812 101.391 30.614C101.391 26.416 102.119 22.4979 103.574 18.8596C105.029 15.1654 107.1 11.9469 109.787 9.20419C112.474 6.4615 115.608 4.30653 119.19 2.73927C122.829 1.17202 126.775 0.388392 131.029 0.388392C135.786 0.388392 139.901 1.17202 143.371 2.73927C146.841 4.30653 149.92 6.43351 152.606 9.12024L146.058 15.6691C144.322 13.766 142.195 12.2827 139.677 11.2192C137.214 10.1557 134.331 9.62399 131.029 9.62399C128.118 9.62399 125.459 10.1278 123.053 11.1353C120.646 12.1428 118.547 13.5981 116.756 15.5012C115.02 17.3483 113.677 19.5593 112.725 22.134C111.774 24.7088 111.298 27.5355 111.298 30.614C111.298 33.6925 111.774 36.5192 112.725 39.094C113.677 41.6687 115.02 43.9077 116.756 45.8108C118.547 47.6579 120.646 49.0852 123.053 50.0927C125.459 51.1002 128.118 51.604 131.029 51.604C134.611 51.604 137.634 51.0723 140.096 50.0088C142.615 48.8893 144.742 47.378 146.477 45.4749L153.026 52.0238C150.34 54.7665 147.177 56.9215 143.539 58.4887C139.901 60.056 135.73 60.8396 131.029 60.8396ZM161.642 60V1.22799H171.297V60H161.642ZM199.004 60V1.22799H208.66V60H199.004ZM168.275 33.9724V25.1566H201.103V33.9724H168.275ZM221.414 60V1.22799H231.07V60H221.414ZM228.047 60V51.1842H260.959V60H228.047ZM228.047 34.2243V25.7443H258.105V34.2243H228.047ZM228.047 10.0438V1.22799H260.54V10.0438H228.047ZM270.938 60V1.22799H277.654L302.087 41.4448H297.721L322.153 1.22799H328.87V60H319.215V18.1879L321.398 18.7756L303.262 48.5814H296.545L278.41 18.7756L280.593 18.1879V60H270.938ZM360.002 36.4912L337.081 1.22799H348.248L366.131 29.3546H360.926L378.809 1.22799H389.808L366.719 36.4912H360.002ZM358.659 60V30.4461H368.314V60H358.659ZM77.19 166V107.228H83.9068L86.8454 118.311V166H77.19ZM117.911 166L82.7314 120.074L83.9068 107.228L119.086 153.154L117.911 166ZM117.911 166L114.972 155.673V107.228H124.627V166H117.911ZM152.597 166.84C147.951 166.84 144.005 166 140.758 164.321C137.512 162.642 134.601 160.179 132.026 156.932L138.575 150.383C140.199 152.734 142.13 154.581 144.369 155.925C146.607 157.212 149.462 157.856 152.932 157.856C156.179 157.856 158.754 157.184 160.657 155.841C162.616 154.497 163.595 152.65 163.595 150.299C163.595 148.34 163.092 146.745 162.084 145.514C161.077 144.282 159.733 143.275 158.054 142.491C156.431 141.652 154.612 140.924 152.597 140.308C150.638 139.637 148.65 138.909 146.635 138.125C144.676 137.286 142.857 136.25 141.178 135.019C139.555 133.787 138.239 132.192 137.232 130.233C136.224 128.274 135.721 125.783 135.721 122.761C135.721 119.29 136.56 116.352 138.239 113.945C139.975 111.482 142.298 109.607 145.208 108.319C148.119 107.032 151.365 106.388 154.947 106.388C158.81 106.388 162.252 107.144 165.275 108.655C168.353 110.167 170.844 112.098 172.747 114.449L166.198 120.997C164.519 119.094 162.756 117.695 160.909 116.799C159.118 115.848 157.046 115.372 154.696 115.372C151.785 115.372 149.49 115.96 147.811 117.135C146.188 118.311 145.376 119.962 145.376 122.089C145.376 123.88 145.88 125.335 146.887 126.455C147.895 127.518 149.21 128.442 150.833 129.226C152.513 129.953 154.332 130.653 156.291 131.325C158.306 131.996 160.293 132.752 162.252 133.591C164.267 134.431 166.086 135.523 167.709 136.866C169.389 138.153 170.732 139.832 171.739 141.903C172.747 143.974 173.251 146.577 173.251 149.712C173.251 154.973 171.376 159.143 167.625 162.222C163.931 165.3 158.922 166.84 152.597 166.84ZM182.878 166V107.228H192.533V166H182.878ZM231.793 166.84C227.763 166.84 223.957 166.056 220.375 164.489C216.792 162.921 213.658 160.766 210.971 158.024C208.284 155.225 206.157 152.007 204.59 148.368C203.079 144.674 202.323 140.728 202.323 136.53C202.323 132.332 203.079 128.414 204.59 124.776C206.157 121.137 208.284 117.947 210.971 115.204C213.714 112.406 216.904 110.251 220.543 108.739C224.237 107.172 228.211 106.388 232.465 106.388C237.111 106.388 241.421 107.284 245.395 109.075C249.369 110.866 252.699 113.413 255.386 116.715L248.837 123.264C247.102 120.802 244.779 118.926 241.868 117.639C238.958 116.296 235.823 115.624 232.465 115.624C228.435 115.624 224.88 116.52 221.802 118.311C218.779 120.046 216.429 122.481 214.749 125.615C213.07 128.75 212.231 132.388 212.231 136.53C212.231 140.672 213.07 144.338 214.749 147.529C216.484 150.663 218.807 153.126 221.718 154.917C224.629 156.708 227.931 157.604 231.625 157.604C235.543 157.604 238.902 156.904 241.7 155.505C244.555 154.05 246.738 151.923 248.249 149.124C249.761 146.269 250.516 142.771 250.516 138.629L256.561 142.995H231.457V134.179H260.508V135.523C260.508 142.519 259.248 148.34 256.729 152.986C254.266 157.632 250.88 161.102 246.57 163.397C242.26 165.692 237.335 166.84 231.793 166.84ZM270.118 166V107.228H279.773V166H270.118ZM307.48 166V107.228H317.135V166H307.48ZM276.75 139.972V131.157H309.579V139.972H276.75ZM344.667 166V108.907H354.322V166H344.667ZM325.524 116.044V107.228H373.465V116.044H325.524Z" fill="black"/>
</g>
<defs>
<filter id="filter0_d_0_1" x="0.0150146" y="0.388397" width="399.793" height="176.451" filterUnits="userSpaceOnUse" color-interpolation-filters="sRGB">
<feFlood flood-opacity="0" result="BackgroundImageFix"/>
<feColorMatrix in="SourceAlpha" type="matrix" values="0 0 0 0 0 0 0 0 0 0 0 0 0 0 0 0 0 0 127 0" result="hardAlpha"/>
<feOffset dx="5" dy="5"/>
<feGaussianBlur stdDeviation="2.5"/>
<feComposite in2="hardAlpha" operator="out"/>
<feColorMatrix type="matrix" values="0 0 0 0 0 0 0 0 0 0 0 0 0 0 0 0 0 0 0.25 0"/>
<feBlend mode="normal" in2="BackgroundImageFix" result="effect1_dropShadow_0_1"/>
<feBlend mode="normal" in="SourceGraphic" in2="effect1_dropShadow_0_1" result="shape"/>
</filter>
</defs>
</svg>
