<svg width="69" height="67" viewBox="0 0 69 67" fill="none" xmlns="http://www.w3.org/2000/svg">
<ellipse cx="34.5" cy="33.5" rx="34.5" ry="33.5" fill="black"/>
<path d="M34.8203 6.48047C49.9336 6.48047 62.1611 18.3733 62.1611 33.0146C62.161 47.6559 49.9335 59.5488 34.8203 59.5488C19.7073 59.5486 7.48061 47.6557 7.48047 33.0146C7.48047 18.3735 19.7072 6.48072 34.8203 6.48047Z" fill="white" stroke="black" stroke-width="0.96"/>
<path d="M40.059 39.9863C39.7543 39.7832 39.5765 39.5124 39.5258 39.1738C39.4834 38.8353 39.5808 38.484 39.8177 38.1201C40.1648 37.6123 40.4356 37.0368 40.6302 36.3935C40.8249 35.7418 40.9222 35.0605 40.9222 34.3496C40.9222 33.6387 40.8249 32.9573 40.6302 32.3056C40.444 31.654 40.1732 31.0784 39.8177 30.5791C39.5723 30.2236 39.475 29.8766 39.5258 29.5381C39.5765 29.1911 39.7543 28.916 40.059 28.7129C40.3298 28.5351 40.6218 28.4759 40.9349 28.5351C41.2481 28.5944 41.4978 28.7594 41.684 29.0303C42.2002 29.7158 42.6023 30.5241 42.89 31.4551C43.1778 32.3776 43.3217 33.3424 43.3217 34.3496C43.3217 35.3568 43.1778 36.3216 42.89 37.2441C42.6023 38.1667 42.2002 38.9707 41.684 39.6562C41.4978 39.9355 41.2481 40.1048 40.9349 40.164C40.6218 40.2148 40.3298 40.1556 40.059 39.9863ZM45.1244 43.376C44.8282 43.1898 44.6589 42.9316 44.6166 42.6015C44.5743 42.263 44.6631 41.9287 44.8832 41.5986C45.5518 40.5999 46.0723 39.4785 46.4447 38.2344C46.8171 36.9902 47.0033 35.6953 47.0033 34.3496C47.0033 33.0039 46.8171 31.709 46.4447 30.4648C46.0808 29.2122 45.5603 28.0908 44.8832 27.1006C44.6547 26.7705 44.5616 26.4404 44.6039 26.1103C44.6547 25.7718 44.8282 25.5094 45.1244 25.3232C45.4121 25.137 45.7126 25.0778 46.0258 25.1455C46.3474 25.2047 46.6055 25.3782 46.8002 25.666C47.6296 26.8255 48.2686 28.1627 48.7172 29.6777C49.1742 31.1842 49.4027 32.7415 49.4027 34.3496C49.4027 35.9577 49.1742 37.515 48.7172 39.0215C48.2601 40.5195 47.6211 41.8568 46.8002 43.0332C46.6055 43.3209 46.3474 43.4944 46.0258 43.5537C45.7126 43.6129 45.4121 43.5537 45.1244 43.376Z" fill="black"/>
<path d="M33.8887 45.7246C33.5671 45.7246 33.2624 45.6527 32.9746 45.5088C32.6868 45.3734 32.3864 45.1576 32.0732 44.8613L26.7666 39.834C26.682 39.7663 26.5846 39.7324 26.4746 39.7324H22.8691C21.9466 39.7324 21.2357 39.4785 20.7363 38.9707C20.2454 38.4629 20 37.7139 20 36.7236V32.0137C20 31.0319 20.2454 30.2871 20.7363 29.7793C21.2357 29.2715 21.9466 29.0176 22.8691 29.0176H26.4746C26.5846 29.0176 26.682 28.9795 26.7666 28.9033L32.0732 23.9395C32.4287 23.6094 32.7376 23.3724 33 23.2285C33.2624 23.0762 33.5501 23 33.8633 23C34.3542 23 34.752 23.165 35.0566 23.4951C35.3698 23.8252 35.5264 24.2272 35.5264 24.7012V44.0869C35.5264 44.5524 35.374 44.9417 35.0693 45.2549C34.7646 45.568 34.3711 45.7246 33.8887 45.7246Z" fill="black"/>
</svg>
